<svg width="36" height="40" viewBox="0 0 36 40" fill="none" xmlns="http://www.w3.org/2000/svg">
<path fill-rule="evenodd" clip-rule="evenodd" d="M24.0661 15.9029C24.7141 17.0582 29.5953 25.5889 35.6155 31.5966C35.734 31.7148 35.7967 31.8777 35.7888 32.0449C35.78 32.2124 35.7008 32.368 35.5711 32.4737C35.5062 32.5266 34.072 33.6859 31.591 34.9819C31.591 34.9819 31.5919 34.9825 31.5928 34.9834C31.6933 35.1104 31.7365 35.273 31.7137 35.4335C31.6908 35.5937 31.6037 35.7375 31.4716 35.8314C31.2405 35.9964 25.7235 39.8704 17.8948 39.8704C15.1275 39.8704 12.338 39.3823 9.60478 38.4206C9.29632 38.3115 9.13402 37.9729 9.24242 37.665C9.35144 37.3562 9.69004 37.1942 9.99941 37.3034C12.6053 38.221 15.2618 38.686 17.8948 38.686C24.0171 38.686 28.7414 36.1353 30.2621 35.2037C25.433 28.8784 21.6548 20.1845 21.6161 20.0952C21.4864 19.7952 21.6246 19.4469 21.9261 19.3174C22.2266 19.1879 22.5765 19.3262 22.7053 19.6271L22.7062 19.6291C22.7791 19.7964 26.3111 27.8987 30.8602 34.0254C32.4819 33.1916 33.6661 32.4011 34.2974 31.9485C28.626 26.1117 24.0543 18.2855 23.1246 16.6485H12.6638C11.7351 18.2855 7.16329 26.1117 1.49196 31.9485C2.12472 32.402 3.31136 33.1932 4.92917 34.0254C9.47732 27.8987 13.0093 19.7964 13.0822 19.6291L13.0831 19.6271C13.2128 19.3262 13.5618 19.1879 13.8632 19.3174C14.1638 19.4469 14.3023 19.7952 14.1726 20.0952C14.1345 20.1845 10.3563 28.8793 5.5266 35.2043C6.00528 35.4983 6.79941 35.9529 7.84933 36.4347C8.14683 36.5712 8.27716 36.9228 8.14044 37.2204C8.04056 37.4368 7.82558 37.5653 7.60086 37.5653C7.51773 37.5653 7.43399 37.5474 7.3533 37.5109C5.45839 36.6417 4.3628 35.8645 4.31712 35.8314C4.18558 35.7375 4.09788 35.5937 4.07505 35.4335C4.0519 35.273 4.09636 35.1104 4.19685 34.9834C4.19685 34.9825 4.19745 34.9819 4.19837 34.9819C1.71669 33.6859 0.282488 32.5266 0.217324 32.4737C0.0876071 32.368 0.00874135 32.2124 0.000824368 32.0449C-0.00800614 31.8777 0.0544165 31.7148 0.173172 31.5966C6.19346 25.5889 11.0746 17.0582 11.7232 15.9029V13.2939C11.7232 11.4572 10.3825 6.39474 10.3688 6.34428C10.338 6.22818 10.3429 6.1066 10.3831 5.99384C10.6419 5.26712 11.0658 4.72246 11.6465 4.36472C11.7004 3.54256 12.0042 1.56056 13.6281 0.174899C13.7612 0.0612255 13.9384 0.0113793 14.1108 0.0405576C14.284 0.0691279 14.4351 0.172468 14.5246 0.323222C14.5761 0.409237 15.7024 2.32984 15.8632 4.27688L15.8829 4.28327C15.9674 4.3106 16.0516 4.33787 16.1369 4.36776C16.9018 4.63067 17.541 4.93643 17.8948 5.11788C18.2474 4.93643 18.8875 4.63067 19.6518 4.36776C19.7266 4.34171 19.8005 4.31765 19.8736 4.29381L19.9255 4.27688C20.086 2.32984 21.2133 0.409237 21.2647 0.323222C21.3542 0.172468 21.5053 0.0691279 21.6776 0.0405576C21.8509 0.0113793 22.0275 0.0612255 22.1612 0.174899C23.7845 1.56056 24.0884 3.54195 24.1429 4.36472C24.7236 4.72246 25.1474 5.26712 25.4062 5.99384C25.4464 6.1066 25.4513 6.22818 25.4212 6.34428C25.4181 6.3537 25.1681 7.29592 24.8855 8.5056C24.8112 8.82383 24.4924 9.022 24.173 8.94784C23.8542 8.87368 23.6557 8.55545 23.73 8.23631C23.9419 7.32753 24.1365 6.56616 24.2251 6.22818C24.0068 5.72272 23.6672 5.38961 23.1919 5.21271C21.6597 4.64495 19.0607 5.80813 18.188 6.30416C18.0063 6.4075 17.7825 6.4075 17.6004 6.30416C16.7286 5.80813 14.13 4.64586 12.5983 5.21271C12.1221 5.38961 11.7826 5.72212 11.5652 6.22818C11.792 7.09988 12.7043 10.6873 12.88 12.7018H22.9078C22.9553 12.1505 23.0613 11.4447 23.23 10.5651C23.2915 10.2435 23.6018 10.0329 23.9236 10.0943C24.2458 10.1551 24.4568 10.4654 24.3953 10.787C24.177 11.931 24.0661 12.7744 24.0661 13.2939V15.9029ZM22.8953 3.924C22.7915 3.29941 22.5385 2.40491 21.9237 1.62925C21.6499 2.2113 21.2997 3.08391 21.1581 3.97142C21.7964 3.8617 22.3771 3.84589 22.8953 3.924ZM13.8657 1.62925C14.1394 2.2113 14.489 3.08391 14.6315 3.97142C13.9929 3.8617 13.4123 3.84589 12.894 3.924C12.9978 3.29941 13.2503 2.40491 13.8657 1.62925ZM12.9098 15.464H22.8795V13.8863H12.9098V15.464Z" fill="#D94DA1"/>
</svg>
