<svg width="36" height="36" viewBox="0 0 36 36" fill="none" xmlns="http://www.w3.org/2000/svg">
<path fill-rule="evenodd" clip-rule="evenodd" d="M27.9126 6.07572C31.9645 8.77703 34.6066 13.1391 35.1238 17.9813C35.1862 18.5604 35.2175 19.1425 35.2174 19.725V34.7377C35.2174 35.0618 34.9546 35.3246 34.6304 35.3246H30.5218C30.2348 35.3246 29.9899 35.1171 29.9428 34.834L28.174 23.6306V29.4551H27V10.477L20.729 7.86415C20.0913 8.37524 19.2649 8.87437 18.1957 9.31172V30.629H27.587C27.9112 30.629 28.174 30.8918 28.174 31.216V34.738C28.174 35.0622 27.9112 35.325 27.587 35.325H7.63118C7.44625 35.3252 7.27205 35.2382 7.16117 35.0902L5.40031 32.7424L5.39683 32.7378L5.39324 32.7326L5.38987 32.7274L5.38564 32.7209C5.38401 32.7185 5.38222 32.7163 5.38045 32.714C5.37886 32.7119 5.3773 32.7099 5.37588 32.7076L2.5723 28.3466C-0.720659 23.2242 -0.862077 16.6877 2.20626 11.4278L2.46415 10.9856C3.64409 8.96635 5.31227 7.27575 7.31562 6.06897L7.31708 6.06801L7.32164 6.06504L7.32846 6.06068C7.33829 6.05485 7.34854 6.0499 7.3589 6.0449L7.37167 6.03867L7.37954 6.03431L7.37956 6.0343C7.38358 6.032 7.38759 6.0297 7.39207 6.02773L10.9138 4.46256L11.3907 5.53528L8.21754 6.94558V9.20534L13.5629 6.97808C12.3489 5.57417 12.3262 4.30085 12.3262 4.21626C12.3262 4.18391 12.3289 4.15162 12.3341 4.1197L12.7582 1.57454C12.8298 1.15302 13.0524 0.771962 13.3843 0.502476L13.3851 0.501889L13.3863 0.500862C13.3884 0.499145 13.3907 0.497581 13.3929 0.496015L13.3984 0.491984C13.7097 0.243565 14.096 0.108058 14.4943 0.107605H20.7233C21.1247 0.108228 21.5139 0.245675 21.8267 0.497267L21.8295 0.499321L21.8322 0.501375C22.1618 0.768794 22.3838 1.14623 22.4573 1.56427L22.8315 3.80818L27.8254 6.02766C27.8282 6.02898 27.8307 6.03074 27.8334 6.03199C27.848 6.0388 27.8621 6.04686 27.8762 6.05492L27.8762 6.05493L27.8762 6.05495L27.885 6.05979C27.8924 6.06379 27.8997 6.06778 27.9067 6.07234C27.9087 6.07359 27.9107 6.07447 27.9126 6.07572ZM32.5944 18.1462L33.9012 17.6561C33.6813 16.035 33.1995 14.4604 32.4746 12.9939L30.699 13.8816L32.5944 18.1462ZM18.2438 4.80321C18.0043 5.34058 17.7923 5.88983 17.6088 6.4488C17.4252 5.88983 17.2133 5.34058 16.9738 4.80321H18.2438ZM16.3937 3.62931H18.8247C19.2735 2.79888 19.7999 2.01278 20.3968 1.28151H14.8214C15.4181 2.01293 15.9445 2.79902 16.3937 3.62931ZM13.8802 1.98401C14.515 2.75651 15.0647 3.5951 15.52 4.4853C16.0823 5.58185 16.5164 6.73954 16.8138 7.93547C13.7829 6.46868 13.524 4.55155 13.5021 4.25294L13.8802 1.98401ZM3.22044 12.019C1.88098 14.3167 1.17487 16.9286 1.17411 19.5882C1.17248 22.4689 2.00078 25.2891 3.55992 27.7114L6.06218 31.6039L9.25777 29.7779L4.14798 16.166L5.24367 15.7446L7.04364 20.4245V7.65293C5.59425 8.69763 4.37975 10.0343 3.47834 11.5769L3.22044 12.019ZM6.7382 32.5696L9.73086 30.8596L10.3956 32.1889L7.76698 33.9413L6.7382 32.5696ZM11.4778 32.8782L9.56915 34.1507H17.0218V31.8029H11.515L11.6773 32.1274C11.8096 32.3921 11.7241 32.714 11.4778 32.8782ZM27 31.8029V34.1507H18.1957V31.8029H27ZM10.5185 29.8099L10.9281 30.629H17.0218V9.31172C15.9527 8.87437 15.1263 8.37524 14.4886 7.86415L8.21754 10.477V23.4822L9.53657 27.1095L12.4436 23.2334L13.3827 23.9378L10.0157 28.4271L10.5185 29.8099ZM19.6978 4.48486C20.1529 3.59485 20.7027 2.75655 21.3376 1.98453L21.7156 4.25346C21.6944 4.54407 21.4381 6.46699 18.4026 7.93598C18.7001 6.73958 19.1347 5.58154 19.6978 4.48486ZM22.7433 5.05362C22.5209 5.76498 22.1498 6.42096 21.6547 6.97808L27 9.20534V6.94558L22.7433 5.05362ZM28.174 7.71125C29.6745 8.88293 30.9431 10.3244 31.9147 11.9616L29.6724 13.0824C29.3916 13.2227 29.271 13.5591 29.3984 13.8458L31.7462 19.1284C31.8724 19.4123 32.1979 19.5487 32.4887 19.4396L34.0186 18.8658C34.0348 19.1514 34.0435 19.4384 34.0435 19.725V30.629H30.4383L28.174 15.9104V7.71125ZM31.019 34.1507H34.0435V31.8029H30.6277L31.019 34.1507Z" fill="#D94DA1"/>
<path d="M21.8348 23.781L22.7739 23.0781L26.2956 27.7641L25.3564 28.4669L21.8348 23.781Z" fill="#D94DA1"/>
</svg>
