<svg width="24" height="40" viewBox="0 0 24 40" fill="none" xmlns="http://www.w3.org/2000/svg">
<path fill-rule="evenodd" clip-rule="evenodd" d="M22.0739 0.631328L24.0808 38.6313C24.0988 38.9866 23.8345 39.2947 23.4793 39.33L16.7899 39.9966C16.7665 39.9987 16.7444 40 16.7223 40C16.3986 40 16.1163 39.7654 16.0627 39.4407L12.0404 14.816L8.01809 39.4413C7.96188 39.7887 7.64212 40.0273 7.29163 39.9973L0.602274 39.3307C0.247084 39.2954 -0.0178002 38.9873 0.000935317 38.632L2.00775 0.632031C2.02578 0.277969 2.31943 0 2.67533 0H21.4057C21.7616 0 22.0552 0.277969 22.0739 0.631328ZM12.7007 10.5594L17.2823 38.6073L22.7108 38.066L20.7708 1.33336H3.31022L1.37027 38.0667L6.79871 38.608L11.3803 10.5601C11.4331 10.2367 11.7127 10.0001 12.0405 10.0001C12.3682 10.0001 12.6479 10.2367 12.7007 10.5594Z" fill="#D94DA1"/>
<rect x="2.44897" y="2.85715" width="18.7755" height="1.22449" fill="#D94DA1"/>
<path d="M11.2926 0.816315V9.51104C10.4354 8.74101 9.93273 7.6519 9.93201 6.47396V0.816315H8.57141V6.47396C8.57277 8.55532 9.75917 10.4271 11.6687 11.3582C11.7646 11.4053 11.8687 11.4286 11.9728 11.4286C12.0966 11.4286 12.2211 11.3954 12.3299 11.3298C12.5306 11.2084 12.653 10.9955 12.653 10.7653V0.816315L11.2926 0.816315Z" fill="#D94DA1"/>
<path d="M5.26874 3.26532L5.19157 3.65777C4.88029 5.21666 3.91301 6.52812 2.52698 7.27614H2.04077V8.57144H2.68389C2.78421 8.57144 2.88264 8.54814 2.97203 8.50344C4.78503 7.5883 6.05333 5.9155 6.45339 3.91103L6.53057 3.516L5.26874 3.26532Z" fill="#D94DA1"/>
<path d="M21.5553 7.27563C20.1687 6.5277 19.2014 5.21701 18.8907 3.6603L18.8135 3.26532L17.551 3.51589L17.6289 3.91353C18.0289 5.91516 19.2978 7.58774 21.1096 8.50277C21.199 8.54807 21.298 8.57144 21.3977 8.57144H22.0408V7.27563H21.5553Z" fill="#D94DA1"/>
</svg>
