<svg width="40" height="35" viewBox="0 0 40 35" fill="none" xmlns="http://www.w3.org/2000/svg">
<path fill-rule="evenodd" clip-rule="evenodd" d="M38.448 9.3431C38.4574 9.35201 38.4666 9.36119 38.4755 9.37057C38.7642 9.67404 38.7519 10.1536 38.448 10.4418L32.1325 16.8144V34.2423C32.1325 34.6607 31.7926 35 31.3734 35H7.31081C6.89161 35 6.55173 34.6607 6.55173 34.2423V16.8144L0.236252 10.4418C0.226858 10.4329 0.217654 10.4237 0.208735 10.4144C-0.079997 10.111 -0.0676621 9.63133 0.236252 9.3431L8.16856 2.28102C8.24143 2.21471 8.32645 2.16328 8.41905 2.12947L14.188 0.0456979C14.256 0.0218293 14.3271 0.00781118 14.399 0.00392779C14.8177 -0.0184254 15.1752 0.302191 15.1976 0.720082C15.2052 0.886783 15.4481 4.7285 19.3193 4.78912C23.1678 4.7285 23.4183 0.886783 23.4183 0.720082C23.4221 0.644687 23.4371 0.570334 23.4629 0.499392C23.606 0.106033 24.0414 -0.0971351 24.4355 0.0456979L30.212 2.10674C30.3046 2.14055 30.3896 2.19198 30.4625 2.25828L38.448 9.3431ZM32.1097 11.1389V14.6548L36.7704 9.94171L29.5668 3.48581L24.815 1.77333C24.3803 4.00931 22.6289 5.7576 20.389 6.19159C17.3559 6.77921 14.4199 4.80105 13.8312 1.77333L9.07945 3.48581L1.85308 9.94171L6.52137 14.6624V11.1389C6.52137 10.7205 6.86125 10.3812 7.28044 10.3812C7.69964 10.3812 8.03952 10.7205 8.03952 11.1389V33.4466H30.5916V11.1389C30.5916 10.7205 30.9314 10.3812 31.3506 10.3812C31.7698 10.3812 32.1097 10.7205 32.1097 11.1389Z" fill="#D94DA1"/>
</svg>
