<svg width="22" height="22" viewBox="0 0 22 22" fill="none" xmlns="http://www.w3.org/2000/svg">
<path d="M11 0C17.0654 0 22 4.93454 22 10.9999C22 17.0654 17.0654 22 11 22C4.93461 22 -1.90735e-06 17.0654 -1.90735e-06 10.9999C-1.90735e-06 4.93454 4.93454 0 11 0ZM11 20.7295C16.3648 20.7295 20.7295 16.3648 20.7295 10.9999C20.7295 5.63513 16.3648 1.2705 11 1.2705C5.63516 1.2705 1.2705 5.63513 1.2705 10.9999C1.2705 16.3648 5.63516 20.7295 11 20.7295Z" fill="#FF6565"/>
<path d="M4.94389 5.20287C5.11007 4.89376 5.49518 4.77804 5.80422 4.94416L12.9541 8.78869C13.0639 8.84772 13.1538 8.93766 13.2128 9.04744L17.0558 16.1958C17.1918 16.4486 17.1388 16.7525 16.9457 16.9457C16.9029 16.9885 16.8532 17.0259 16.797 17.056C16.606 17.1587 16.3859 17.1534 16.2064 17.0616L16.2063 17.0617L16.2036 17.0603C16.2011 17.059 16.1985 17.0575 16.196 17.0562L9.04254 13.2144C8.93275 13.1555 8.84281 13.0655 8.78371 12.9557L4.95611 5.82509C4.94773 5.81067 4.93975 5.79612 4.93256 5.78116L4.92739 5.77156L4.92803 5.77135C4.84668 5.59603 4.84535 5.38617 4.94389 5.20287ZM14.9398 14.9429L12.4977 10.4005L10.3977 12.5006L14.9398 14.9429ZM9.49882 11.6026L11.5989 9.50254L7.05689 7.06025" fill="#FF6565"/>
</svg>
