<svg width="32" height="32" viewBox="0 0 32 32" fill="none" xmlns="http://www.w3.org/2000/svg">
<circle cx="16" cy="16" r="3.2" fill="#C4C4C4"/>
<path d="M32 16C32 13.8989 31.5861 11.8183 30.7821 9.87706C29.978 7.93586 28.7994 6.17203 27.3137 4.68629C25.828 3.20055 24.0641 2.022 22.1229 1.21793C20.1817 0.413852 18.1011 -9.18442e-08 16 0L16 2.22659C17.8087 2.22659 19.5998 2.58285 21.2709 3.27503C22.9419 3.96721 24.4603 4.98175 25.7393 6.26073C27.0182 7.53971 28.0328 9.05808 28.725 10.7291C29.4171 12.4002 29.7734 14.1913 29.7734 16H32Z" fill="#C4C4C4"/>
<path d="M27.2 17.6C27.2 15.9191 26.8689 14.2546 26.2257 12.7016C25.5824 11.1487 24.6396 9.73761 23.451 8.54902C22.2624 7.36043 20.8513 6.41759 19.2983 5.77433C17.7454 5.13107 16.0809 4.79999 14.4 4.79999L14.4 7.17684C15.7688 7.17684 17.1242 7.44644 18.3888 7.97025C19.6534 8.49406 20.8024 9.26183 21.7703 10.2297C22.7382 11.1976 23.5059 12.3466 24.0297 13.6112C24.5535 14.8758 24.8232 16.2312 24.8232 17.6H27.2Z" fill="#C4C4C4"/>
</svg>
