<svg width="17" height="23" viewBox="0 0 17 23" fill="none" xmlns="http://www.w3.org/2000/svg">
<path d="M16.649 18.3036C16.5859 18.2597 16.1106 17.9032 15.6346 16.8249C14.7606 14.8446 14.5772 12.0551 14.5772 10.0636C14.5772 10.055 14.577 10.0464 14.5767 10.0377C14.5672 7.40582 13.095 5.137 10.9884 4.11902V2.56216C10.9884 1.14937 9.91652 0 8.599 0H8.40099C7.08347 0 6.0116 1.14937 6.0116 2.56216V4.11893C3.8979 5.14019 2.42282 7.4206 2.42282 10.0636C2.42282 12.0551 2.23937 14.8446 1.36535 16.8249C0.889457 17.9032 0.414156 18.2596 0.350962 18.3036C0.0848405 18.4354 -0.0463739 18.74 0.0148482 19.0486C0.0766579 19.3603 0.348822 19.5752 0.646037 19.5752H5.2596C5.28537 21.4683 6.7286 23 8.50002 23C10.2714 23 11.7147 21.4683 11.7404 19.5752H16.354C16.6512 19.5752 16.9234 19.3603 16.9852 19.0486C17.0463 18.74 16.9151 18.4354 16.649 18.3036ZM7.2705 2.56216C7.2705 1.89368 7.77764 1.34986 8.40103 1.34986H8.59904C9.22243 1.34986 9.72958 1.89368 9.72958 2.56216V3.68148C9.33228 3.59357 8.92102 3.5473 8.49985 3.5473C8.0788 3.5473 7.66766 3.59353 7.27054 3.68135V2.56216H7.2705ZM8.50002 21.6501C7.42273 21.6501 6.54401 20.724 6.51846 19.5753H10.4815C10.456 20.7239 9.5773 21.6501 8.50002 21.6501ZM11.0345 18.2253C11.0344 18.2253 2.0805 18.2253 2.0805 18.2253C2.18939 18.0437 2.30021 17.838 2.41036 17.6055C3.25396 15.8247 3.68172 13.2872 3.68172 10.0636C3.68172 7.21481 5.84312 4.89716 8.49981 4.89716C11.1565 4.89716 13.3179 7.21481 13.3179 10.0659C13.3179 10.0742 13.318 10.0824 13.3183 10.0907C13.3207 13.3014 13.7484 15.8297 14.5897 17.6055C14.6998 17.838 14.8107 18.0437 14.9195 18.2253H11.0345Z" fill="#A2A2A2"/>
</svg>
