<svg width="19" height="22" viewBox="0 0 19 22" fill="none" xmlns="http://www.w3.org/2000/svg">
<path d="M9.03854 10.5975C10.4944 10.5975 11.755 10.0753 12.7852 9.04509C13.8151 8.01501 14.3375 6.75465 14.3375 5.29858C14.3375 3.84302 13.8153 2.58249 12.785 1.55208C11.7548 0.522171 10.4943 0 9.03854 0C7.58247 0 6.32211 0.522171 5.29204 1.55225C4.26196 2.58232 3.73962 3.84285 3.73962 5.29858C3.73962 6.75465 4.26196 8.01518 5.29204 9.04526C6.32245 10.0752 7.58298 10.5975 9.03854 10.5975ZM6.20378 2.46382C6.99417 1.67343 7.92136 1.28923 9.03854 1.28923C10.1556 1.28923 11.0829 1.67343 11.8735 2.46382C12.6639 3.25438 13.0482 4.18173 13.0482 5.29858C13.0482 6.41577 12.6639 7.34296 11.8735 8.13351C11.0829 8.92407 10.1556 9.30827 9.03854 9.30827C7.92169 9.30827 6.99451 8.9239 6.20378 8.13351C5.41322 7.34312 5.02885 6.41577 5.02885 5.29858C5.02885 4.18173 5.41322 3.25438 6.20378 2.46382Z" fill="#A2A2A2"/>
<path d="M18.3102 16.9169C18.2805 16.4883 18.2204 16.0206 18.132 15.5268C18.0427 15.0293 17.9277 14.559 17.7901 14.1292C17.6477 13.6849 17.4545 13.2461 17.2154 12.8257C16.9675 12.3893 16.6761 12.0093 16.3491 11.6966C16.0072 11.3694 15.5886 11.1064 15.1045 10.9146C14.6221 10.7237 14.0875 10.6271 13.5157 10.6271C13.2911 10.6271 13.0739 10.7192 12.6545 10.9923C12.3963 11.1606 12.0944 11.3553 11.7573 11.5707C11.4691 11.7543 11.0787 11.9264 10.5965 12.0821C10.126 12.2344 9.64833 12.3116 9.17668 12.3116C8.70537 12.3116 8.22768 12.2344 7.75687 12.0821C7.27515 11.9265 6.88457 11.7545 6.59688 11.5709C6.26303 11.3575 5.96091 11.1628 5.6989 10.9921C5.27979 10.719 5.06259 10.6269 4.83801 10.6269C4.26599 10.6269 3.73157 10.7237 3.24934 10.9147C2.76561 11.1063 2.34683 11.3693 2.00459 11.6967C1.67763 12.0096 1.38625 12.3895 1.1385 12.8257C0.899658 13.2461 0.706299 13.6847 0.563965 14.1293C0.426498 14.5592 0.311523 15.0293 0.222229 15.5268C0.133606 16.02 0.0736847 16.4878 0.0439759 16.9174C0.0147705 17.3376 0 17.7748 0 18.2166C0 19.365 0.365067 20.2947 1.08496 20.9803C1.79596 21.6569 2.73657 22 3.88078 22H14.4739C15.6178 22 16.5584 21.6569 17.2696 20.9803C17.9896 20.2952 18.3547 19.3652 18.3547 18.2164C18.3545 17.7731 18.3396 17.3359 18.3102 16.9169ZM16.3807 20.0463C15.9109 20.4934 15.2871 20.7108 14.4738 20.7108H3.88078C3.06723 20.7108 2.44351 20.4934 1.97388 20.0464C1.51314 19.6079 1.28923 19.0092 1.28923 18.2166C1.28923 17.8044 1.30283 17.3973 1.33002 17.0066C1.35654 16.6232 1.41075 16.2021 1.49115 15.7546C1.57054 15.3127 1.67159 14.8979 1.79176 14.5224C1.90707 14.1624 2.06435 13.8059 2.25938 13.4625C2.44553 13.1352 2.6597 12.8544 2.89603 12.6281C3.11708 12.4165 3.39571 12.2433 3.72401 12.1133C4.02765 11.9932 4.36888 11.9274 4.73932 11.9175C4.78447 11.9415 4.86487 11.9873 4.99512 12.0722C5.26015 12.2449 5.56563 12.442 5.90334 12.6577C6.28401 12.9004 6.77446 13.1196 7.36041 13.3087C7.95946 13.5024 8.57042 13.6008 9.17685 13.6008C9.78328 13.6008 10.3944 13.5024 10.9931 13.3089C11.5796 13.1194 12.0699 12.9004 12.451 12.6573C12.7966 12.4364 13.0936 12.2451 13.3586 12.0722C13.4888 11.9875 13.5692 11.9415 13.6144 11.9175C13.985 11.9274 14.3262 11.9932 14.63 12.1133C14.9582 12.2433 15.2368 12.4166 15.4578 12.6281C15.6942 12.8542 15.9083 13.135 16.0945 13.4627C16.2897 13.8059 16.4471 14.1626 16.5623 14.5223C16.6826 14.8983 16.7838 15.3128 16.8631 15.7544C16.9433 16.2028 16.9977 16.6241 17.0242 17.0067V17.0071C17.0515 17.3963 17.0653 17.8032 17.0655 18.2166C17.0653 19.0093 16.8414 19.6079 16.3807 20.0463Z" fill="#A2A2A2"/>
</svg>
